# xmcd
#
# Track frame offsets: 
#        150
#        13752
#        23572
#        40165
#        49559
#        61062
#        74238
#        86368
#        105131
#        125275
#        141712
#        156778
#        167144
#        177993
#        189574
#        202762
#        216194
#
# Disc length: 3085 seconds
#
# Revision: 0
# Processed by: cddbd v1.5.2PL0 Copyright (c) Steve Scherf et al.
# Submitted via: ExactAudioCopy v0.99pb4
#
DISCID=e40c0b11
DTITLE=Nelson, Willie and Russell, Leon - One For The Road
DYEAR=2002
DGENRE=Country
TTITLE0=Heartbreak Hotel
TTITLE1=Crazy
TTITLE2=Ain't It Funny How Time Slips Away
TTITLE3=White Lightning
TTITLE4=Life And Love
TTITLE5=My Cricket
TTITLE6=Trouble In Mind
TTITLE7=Can The Circle Be Unbroken
TTITLE8=It's Not Supposed To Be That Way
TTITLE9=Wabash Cannonball
TTITLE10=South Of The Border
TTITLE11=Always
TTITLE12=Talk How
TTITLE13=One For My Baby And One More For The Road
TTITLE14=Mystery Train
TTITLE15=Roll In My Sweet Baby's Arms
TTITLE16=Final Jam
EXTD=
EXTT0=
EXTT1=
EXTT2=
EXTT3=
EXTT4=
EXTT5=
EXTT6=
EXTT7=
EXTT8=
EXTT9=
EXTT10=
EXTT11=
EXTT12=
EXTT13=
EXTT14=
EXTT15=
EXTT16=
PLAYORDER=
